{
  "source": "C:\\Users\\Peter\\Desktop\\stuff\\MIUN\\quantitative_research\\video_compression\\videos\\BVI-HD\\RockWave_1920x1080_30fps.mp4",
  "output": "C:\\Users\\Peter\\Desktop\\stuff\\MIUN\\quantitative_research\\video_compression\\compressed_videos\\BVI-HD\\hevc\\1\\RockWave_1920x1080_30fps_hevc.mp4",
  "codec": "hevc",
  "ok": "Input #0, mov,mp4,m4a,3gp,3g2,mj2, from 'C:\\Users\\Peter\\Desktop\\stuff\\MIUN\\quantitative_research\\video_compression\\videos\\BVI-HD\\RockWave_1920x1080_30fps.mp4':\n  Metadata:\n    major_brand     : isom\n    minor_version   : 512\n    compatible_brands: isomiso2avc1mp41\n    encoder         : Lavf54.28.101\n  Duration: 00:00:05.00, start: 0.000000, bitrate: 303557 kb/s\n  Stream #0:0[0x1](und): Video: h264 (High 4:4:4 Predictive) (avc1 / 0x31637661), yuv420p(progressive), 1920x1080, 303553 kb/s, 30 fps, 30 tbr, 30 tbn (default)\n    Metadata:\n      handler_name    : VideoHandler\n      vendor_id       : [0][0][0][0]\n[out#0/mp4 @ 000002a802fcab00] Codec AVOption b:a (set bitrate (in bits/s)) has not been used for any stream. The most likely reason is either wrong type (e.g. a video option with no video streams) or that it is a private option of some decoder which was not actually used for any stream.\nStream mapping:\n  Stream #0:0 -> #0:0 (h264 (native) -> hevc (libx265))\nPress [q] to stop, [?] for help\n[libx265 @ 000002a803d875c0] Unknown option: \"aq-mode.\nx265 [info]: HEVC encoder version 4.1+190-8f11c33ac\nx265 [info]: build info [Windows][GCC 15.1.0][64 bit] 10bit\nx265 [info]: using cpu capabilities: MMX2 SSE2Fast LZCNT SSSE3 SSE4.2 AVX FMA3 BMI2 AVX2\nx265 [info]: Main 10 profile, Level-4 (Main tier)\nx265 [info]: Thread pool created using 12 threads\nx265 [info]: Slices                              : 1\nx265 [info]: frame threads / pool features       : 3 / wpp(17 rows)\nx265 [info]: Coding QT: max CU size, min CU size : 64 / 8\nx265 [info]: Residual QT: max TU size, max depth : 32 / 1 inter / 1 intra\nx265 [info]: ME / range / subpel / merge         : star / 57 / 3 / 3\nx265 [info]: Keyframe min / max / scenecut / bias  : 25 / 250 / 40 / 5.00 \nx265 [info]: Lookahead / bframes / badapt        : 25 / 4 / 2\nx265 [info]: b-pyramid / weightp / weightb       : 1 / 1 / 0\nx265 [info]: References / ref-limit  cu / depth  : 4 / on / on\nx265 [info]: AQ: mode / str / qg-size / cu-tree  : 2 / 1.0 / 32 / 1\nx265 [info]: Rate Control / qCompress            : ABR-1000 kbps / 0.60\nx265 [info]: VBV/HRD buffer / max-rate / init    : 1000 / 1000 / 0.750\nx265 [info]: tools: rect limit-modes rd=4 psy-rd=2.00 rdoq=2 psy-rdoq=1.00\nx265 [info]: tools: rskip mode=1 signhide tmvp strong-intra-smoothing lslices=4\nx265 [info]: tools: deblock sao dhdr10-info\nOutput #0, mp4, to 'C:\\Users\\Peter\\Desktop\\stuff\\MIUN\\quantitative_research\\video_compression\\compressed_videos\\BVI-HD\\hevc\\1\\RockWave_1920x1080_30fps_hevc.mp4':\n  Metadata:\n    major_brand     : isom\n    minor_version   : 512\n    compatible_brands: isomiso2avc1mp41\n    encoder         : Lavf62.3.100\n  Stream #0:0(und): Video: hevc (hev1 / 0x31766568), yuv420p10le(tv, progressive), 1920x1080, q=2-31, 1000 kb/s, 30 fps, 15360 tbn (default)\n    Metadata:\n      encoder         : Lavc62.11.100 libx265\n      handler_name    : VideoHandler\n      vendor_id       : [0][0][0][0]\n    Side data:\n      cpb: bitrate max/min/avg: 1000000/0/1000000 buffer size: 1000000 vbv_delay: N/A\nframe=    0 fps=0.0 q=0.0 size=       0KiB time=N/A bitrate=N/A speed=N/A elapsed=0:00:00.50    \nframe=    0 fps=0.0 q=0.0 size=       0KiB time=N/A bitrate=N/A speed=N/A elapsed=0:00:01.01    \nframe=    0 fps=0.0 q=0.0 size=       0KiB time=N/A bitrate=N/A speed=N/A elapsed=0:00:01.54    \nframe=    1 fps=0.5 q=50.2 size=       0KiB time=-00:00:00.03 bitrate=N/A speed=N/A elapsed=0:00:02.04    \nframe=    7 fps=2.7 q=51.0 size=       0KiB time=00:00:00.16 bitrate=   2.1kbits/s speed=0.0649x elapsed=0:00:02.56    \nframe=   13 fps=4.2 q=51.0 size=       0KiB time=00:00:00.36 bitrate=   1.0kbits/s speed=0.119x elapsed=0:00:03.08    \nframe=   19 fps=5.3 q=51.0 size=       0KiB time=00:00:00.56 bitrate=   0.6kbits/s speed=0.158x elapsed=0:00:03.59    \nframe=   25 fps=6.1 q=51.0 size=       0KiB time=00:00:00.76 bitrate=   0.5kbits/s speed=0.186x elapsed=0:00:04.11    \nframe=   31 fps=6.7 q=51.0 size=       0KiB time=00:00:00.96 bitrate=   0.4kbits/s speed=0.209x elapsed=0:00:04.63    \nx265 [warning]: poc:37, VBV underflow (-18379 bits)\nx265 [warning]: poc:35, VBV underflow (-31179 bits)\nframe=   38 fps=7.4 q=51.0 size=       0KiB time=00:00:01.20 bitrate=   0.3kbits/s speed=0.233x elapsed=0:00:05.14    \nx265 [warning]: poc:41, VBV underflow (-46208 bits)\nx265 [warning]: poc:39, VBV underflow (-32827 bits)\nx265 [warning]: poc:45, VBV underflow (-45912 bits)\nx265 [warning]: poc:43, VBV underflow (-34611 bits)\nframe=   44 fps=7.8 q=51.0 size=     256KiB time=00:00:01.40 bitrate=1498.2kbits/s speed=0.247x elapsed=0:00:05.66    \nx265 [warning]: poc:42, VBV underflow (-699 bits)\nx265 [warning]: poc:44, VBV underflow (-2683 bits)\nx265 [warning]: poc:49, VBV underflow (-51083 bits)\nx265 [warning]: poc:47, VBV underflow (-32491 bits)\nx265 [warning]: poc:46, VBV underflow (-3315 bits)\nx265 [warning]: poc:48, VBV underflow (-4243 bits)\nframe=   50 fps=8.1 q=51.0 size=     256KiB time=00:00:01.60 bitrate=1310.9kbits/s speed=0.259x elapsed=0:00:06.17    \nx265 [warning]: poc:53, VBV underflow (-46147 bits)\nx265 [warning]: poc:51, VBV underflow (-30843 bits)\nx265 [warning]: poc:50, VBV underflow (-195 bits)\nx265 [warning]: poc:57, VBV underflow (-46365 bits)\nx265 [warning]: poc:55, VBV underflow (-27235 bits)\nframe=   57 fps=8.5 q=51.0 size=     256KiB time=00:00:01.83 bitrate=1144.1kbits/s speed=0.274x elapsed=0:00:06.69    \nx265 [warning]: poc:61, VBV underflow (-42952 bits)\nx265 [warning]: poc:59, VBV underflow (-25963 bits)\nx265 [warning]: poc:65, VBV underflow (-39336 bits)\nx265 [warning]: poc:63, VBV underflow (-23315 bits)\nframe=   64 fps=8.9 q=51.0 size=     256KiB time=00:00:02.06 bitrate=1014.9kbits/s speed=0.287x elapsed=0:00:07.20    \nx265 [warning]: poc:70, VBV underflow (-31624 bits)\nx265 [warning]: poc:68, VBV underflow (-28099 bits)\nx265 [warning]: poc:66, VBV underflow (-9355 bits)\nframe=   69 fps=8.9 q=51.0 size=     256KiB time=00:00:02.23 bitrate= 939.2kbits/s speed=0.289x elapsed=0:00:07.71    \nx265 [warning]: poc:67, VBV underflow (-11355 bits)\nx265 [warning]: poc:74, VBV underflow (-34373 bits)\nx265 [warning]: poc:72, VBV underflow (-22443 bits)\nframe=   75 fps=9.1 q=51.0 size=     256KiB time=00:00:02.43 bitrate= 862.0kbits/s speed=0.295x elapsed=0:00:08.24    \nx265 [warning]: poc:79, VBV underflow (-21672 bits)\nx265 [warning]: poc:77, VBV underflow (-25139 bits)\nx265 [warning]: poc:75, VBV underflow (-6403 bits)\nx265 [warning]: poc:76, VBV underflow (-8691 bits)\nx265 [warning]: poc:83, VBV underflow (-27133 bits)\nx265 [warning]: poc:81, VBV underflow (-15347 bits)\nframe=   82 fps=9.4 q=51.0 size=     512KiB time=00:00:02.66 bitrate=1573.0kbits/s speed=0.304x elapsed=0:00:08.76    \nx265 [warning]: poc:88, VBV underflow (-15040 bits)\nx265 [warning]: poc:86, VBV underflow (-23459 bits)\nx265 [warning]: poc:84, VBV underflow (-5947 bits)\nx265 [warning]: poc:85, VBV underflow (-4619 bits)\nframe=   88 fps=9.5 q=51.0 size=     512KiB time=00:00:02.86 bitrate=1463.3kbits/s speed=0.309x elapsed=0:00:09.26    \nx265 [warning]: poc:92, VBV underflow (-23917 bits)\nx265 [warning]: poc:90, VBV underflow (-16067 bits)\nx265 [warning]: poc:96, VBV underflow (-10384 bits)\nx265 [warning]: poc:94, VBV underflow (-16019 bits)\nframe=   94 fps=9.6 q=51.0 size=     512KiB time=00:00:03.06 bitrate=1367.8kbits/s speed=0.313x elapsed=0:00:09.79    \nx265 [warning]: poc:100, VBV underflow (-8936 bits)\nx265 [warning]: poc:98, VBV underflow (-16755 bits)\nx265 [warning]: poc:104, VBV underflow (-12432 bits)\nx265 [warning]: poc:102, VBV underflow (-16139 bits)\nframe=  102 fps=9.9 q=51.0 size=     512KiB time=00:00:03.33 bitrate=1258.4kbits/s speed=0.323x elapsed=0:00:10.30    \nx265 [warning]: poc:108, VBV underflow (-10632 bits)\nx265 [warning]: poc:106, VBV underflow (-16835 bits)\nx265 [warning]: poc:112, VBV underflow (-10608 bits)\nx265 [warning]: poc:110, VBV underflow (-18491 bits)\nframe=  110 fps= 10 q=51.0 size=     512KiB time=00:00:03.60 bitrate=1165.2kbits/s speed=0.333x elapsed=0:00:10.82    \nx265 [warning]: poc:116, VBV underflow (-11936 bits)\nx265 [warning]: poc:114, VBV underflow (-19819 bits)\nframe=  117 fps= 10 q=51.0 size=     512KiB time=00:00:03.83 bitrate=1094.3kbits/s speed=0.338x elapsed=0:00:11.33    \nx265 [warning]: poc:120, VBV underflow (-11720 bits)\nx265 [warning]: poc:118, VBV underflow (-16147 bits)\nx265 [warning]: poc:124, VBV underflow (-10448 bits)\nx265 [warning]: poc:122, VBV underflow (-17035 bits)\nframe=  122 fps= 10 q=51.0 size=     512KiB time=00:00:04.00 bitrate=1048.7kbits/s speed=0.338x elapsed=0:00:11.84    \nx265 [warning]: poc:128, VBV underflow (-6432 bits)\nx265 [warning]: poc:126, VBV underflow (-17619 bits)\nx265 [warning]: poc:132, VBV underflow (-7552 bits)\nx265 [warning]: poc:130, VBV underflow (-17483 bits)\nframe=  131 fps= 11 q=51.0 size=     512KiB time=00:00:04.30 bitrate= 975.5kbits/s speed=0.348x elapsed=0:00:12.36    \nx265 [warning]: poc:136, VBV underflow (-12720 bits)\nx265 [warning]: poc:134, VBV underflow (-15187 bits)\nx265 [warning]: poc:140, VBV underflow (-7416 bits)\nx265 [warning]: poc:138, VBV underflow (-15019 bits)\nframe=  139 fps= 11 q=51.0 size=     768KiB time=00:00:04.56 bitrate=1377.8kbits/s speed=0.355x elapsed=0:00:12.87    \nx265 [warning]: poc:145, VBV underflow (-10192 bits)\nx265 [warning]: poc:143, VBV underflow (-21203 bits)\nx265 [warning]: poc:141, VBV underflow (-3315 bits)\nx265 [warning]: poc:142, VBV underflow (-3475 bits)\nx265 [warning]: poc:149, VBV underflow (-24277 bits)\nx265 [warning]: poc:147, VBV underflow (-17643 bits)\nframe=  148 fps= 11 q=51.0 size=     768KiB time=00:00:04.86 bitrate=1292.8kbits/s speed=0.363x elapsed=0:00:13.40    \n[mp4 @ 000002a802fd1440] Starting second pass: moving the moov atom to the beginning of the file\n[out#0/mp4 @ 000002a802fcab00] video:857KiB audio:0KiB subtitle:0KiB other streams:0KiB global headers:2KiB muxing overhead: 0.601799%\nframe=  150 fps= 11 q=51.0 Lsize=     862KiB time=00:00:04.93 bitrate=1431.3kbits/s speed=0.368x elapsed=0:00:13.40    \nx265 [info]: frame I:      1, Avg QP:50.16  kb/s: 2625.36 \nx265 [info]: frame P:     36, Avg QP:51.00  kb/s: 2235.14 \nx265 [info]: frame B:    113, Avg QP:51.00  kb/s: 1126.85 \nx265 [info]: Weighted P-Frames: Y:16.7% UV:11.1%\n\nencoded 150 frames in 12.99s (11.55 fps), 1402.83 kb/s, Avg QP:50.99\n",
  "seconds": 13.729613780975342,
  "probe_out": {}
}